<svg width="20" height="20" viewBox="0 0 20 20" fill="none" xmlns="http://www.w3.org/2000/svg">
<path d="M2.13281 1.14062C1.98177 1.14062 1.85156 1.08854 1.74219 0.984375C1.63802 0.880208 1.58594 0.752604 1.58594 0.601562C1.58594 0.450521 1.63802 0.322917 1.74219 0.21875C1.85156 0.109375 1.98177 0.0546875 2.13281 0.0546875H3.58594C3.48177 0.210938 3.40365 0.385417 3.35156 0.578125C3.30469 0.765625 3.29167 0.953125 3.3125 1.14062H2.13281ZM7.19531 1.14062L6.625 0.289062C6.59896 0.247396 6.57031 0.208333 6.53906 0.171875C6.50781 0.135417 6.47656 0.0963542 6.44531 0.0546875H15.1172C15.0807 0.0963542 15.0469 0.135417 15.0156 0.171875C14.9896 0.208333 14.9635 0.244792 14.9375 0.28125L14.3594 1.14062H7.19531ZM18.25 1.14062C18.2708 0.947917 18.2552 0.757812 18.2031 0.570312C18.1562 0.382812 18.0807 0.210938 17.9766 0.0546875H19.0078C19.1589 0.0546875 19.2865 0.109375 19.3906 0.21875C19.4948 0.322917 19.5469 0.450521 19.5469 0.601562C19.5469 0.752604 19.4948 0.880208 19.3906 0.984375C19.2865 1.08854 19.1589 1.14062 19.0078 1.14062H18.25ZM10.8359 5.44531C10.5078 5.44531 10.2083 5.36719 9.9375 5.21094C9.66667 5.04948 9.45052 4.83333 9.28906 4.5625C9.1276 4.28646 9.04688 3.98438 9.04688 3.65625C9.04688 3.32292 9.1276 3.02344 9.28906 2.75781C9.45052 2.48698 9.66667 2.27083 9.9375 2.10938C10.2083 1.94271 10.5078 1.85938 10.8359 1.85938C11.1693 1.85938 11.4714 1.94271 11.7422 2.10938C12.013 2.27083 12.2292 2.48698 12.3906 2.75781C12.5521 3.02344 12.6328 3.32292 12.6328 3.65625C12.6328 3.98438 12.5521 4.28646 12.3906 4.5625C12.2292 4.83333 12.013 5.04948 11.7422 5.21094C11.4714 5.36719 11.1693 5.44531 10.8359 5.44531ZM6.57031 12.6094L4.125 9.67969L1.5 12.2891C1.33854 12.4557 1.13802 12.5443 0.898438 12.5547C0.664062 12.5599 0.450521 12.4714 0.257812 12.2891C0.0859375 12.1224 0 11.9193 0 11.6797C0 11.4349 0.0859375 11.224 0.257812 11.0469L3.5 7.78906C3.69792 7.59115 3.91927 7.49479 4.16406 7.5C4.40885 7.50521 4.61979 7.58594 4.79688 7.74219L7.13281 9.76562L8.1875 8.17188C8.28125 8.04167 8.32552 7.90104 8.32031 7.75C8.32031 7.59375 8.27604 7.45052 8.1875 7.32031L4.26562 1.4375C4.13021 1.23438 4.08594 1.01302 4.13281 0.773438C4.1849 0.528646 4.3125 0.338542 4.51562 0.203125C4.72396 0.0677083 4.94531 0.0260417 5.17969 0.078125C5.41927 0.125 5.60938 0.25 5.75 0.453125L8.95312 5.27344C9.18229 5.61719 9.46354 5.8724 9.79688 6.03906C10.1354 6.20573 10.4818 6.28906 10.8359 6.28906C11.1693 6.28906 11.4818 6.21875 11.7734 6.07812C12.0703 5.9375 12.3125 5.72656 12.5 5.44531L15.8125 0.453125C15.9531 0.25 16.1432 0.125 16.3828 0.078125C16.6276 0.0260417 16.8516 0.0677083 17.0547 0.203125C17.2526 0.338542 17.375 0.528646 17.4219 0.773438C17.474 1.01302 17.4323 1.23438 17.2969 1.4375L9.96094 12.4219C9.69531 12.8281 9.35938 13.112 8.95312 13.2734C8.54688 13.4349 8.13021 13.4635 7.70312 13.3594C7.27604 13.2552 6.89844 13.0052 6.57031 12.6094ZM8.625 18.7578C8.49479 18.9505 8.3099 19.0729 8.07031 19.125C7.83594 19.1823 7.61458 19.1406 7.40625 19L3.6875 16.5391C3.47917 16.3984 3.35156 16.2057 3.30469 15.9609C3.26302 15.7214 3.3099 15.5026 3.44531 15.3047L5.35156 12.4453L5.9375 13.1328C6.09896 13.3255 6.26823 13.4922 6.44531 13.6328C6.6276 13.7734 6.8151 13.8906 7.00781 13.9844L5.51562 15.6328L8.375 17.5391C8.57812 17.6797 8.70312 17.8646 8.75 18.0938C8.80208 18.3281 8.76042 18.5495 8.625 18.7578Z" fill="#0E0E0E"/>
</svg>
