<svg width="25" height="21" viewBox="0 0 25 21" fill="none" xmlns="http://www.w3.org/2000/svg">
<path d="M16.7344 6.90625C18.55 5.06088 21.4891 5.061 23.3047 6.90625L23.4697 7.08203C25.1224 8.93024 25.085 11.7924 23.3457 13.5957L23.3447 13.5967L16.7002 20.374L16.5762 20.501L16.4512 20.375L15.2461 19.1562L15.125 19.0342L21.8487 12.1543L22.0274 11.9521C22.86 10.9066 22.8006 9.36702 21.8496 8.3916L21.6514 8.21094C20.63 7.36896 19.133 7.42922 18.1797 8.3916L18.1787 8.39062L10.4815 16.252L10.3565 16.3799L10.2315 16.252L9.02639 15.0225L8.90627 14.9004L9.02639 14.7783L16.7344 6.90625ZM19.5459 9.49805L20.7608 10.7168L20.8828 10.8398L20.7617 10.9629L13.0537 18.8242C11.2381 20.6694 8.29896 20.6705 6.48342 18.8252L5.88674 18.2148L5.76858 18.0947L5.88576 17.9717L7.19631 16.6006L7.32229 16.7324L7.91799 17.3496L8.11623 17.5303C9.141 18.3742 10.6428 18.3138 11.5996 17.3496L19.2969 9.5L19.4209 9.37305L19.5459 9.49805ZM9.41994 1.34961L9.53615 1.47168L9.41897 1.59277L2.81545 8.37012C1.79675 9.4199 1.80514 11.1142 2.834 12.1533C3.86139 13.1905 5.51721 13.1816 6.5342 12.1338L14.3594 4.14258L15.6387 5.48242L15.7549 5.60547L15.6367 5.72559L7.92873 13.5977C6.11482 15.4472 3.17219 15.4475 1.35842 13.5977C-0.45297 11.7497 -0.452643 8.75529 1.35842 6.90723L8.00295 0.129883L8.1299 0L9.41994 1.34961ZM11.6192 1.67871C13.378 -0.109021 16.1909 -0.164228 18.0156 1.51172L18.1895 1.67871L18.7871 2.28906L18.9072 2.41016L18.7881 2.5332L17.5928 3.7627L17.4678 3.89062L17.3418 3.7627L16.7442 3.15332C16.2574 2.65194 15.5946 2.37013 14.9043 2.37012C14.2141 2.37019 13.5521 2.65198 13.0655 3.15332L5.36623 11.0039L5.24221 11.1309L5.11721 11.0059L3.90236 9.78711L3.78029 9.66406L3.90139 9.54004L11.6192 1.67871Z" fill="#262626"/>
</svg>
