<svg width="22" height="19" viewBox="0 0 22 19" fill="none" xmlns="http://www.w3.org/2000/svg">
<path d="M20.4922 4.03125C20.7786 4.16146 20.9974 4.33854 21.1484 4.5625C21.2995 4.78646 21.375 5.02344 21.375 5.27344C21.375 5.52865 21.2995 5.76562 21.1484 5.98438C20.9974 6.20312 20.7786 6.3776 20.4922 6.50781L12.8672 10C12.4505 10.1927 12.0651 10.3333 11.7109 10.4219C11.3568 10.5052 11.0156 10.5443 10.6875 10.5391C10.3542 10.5443 10.0104 10.5052 9.65625 10.4219C9.30729 10.3333 8.92188 10.1927 8.5 10L5.07812 8.4375L9.875 6.21875C10.1354 6.29688 10.4115 6.33594 10.7031 6.33594C11.0156 6.33594 11.3099 6.29167 11.5859 6.20312C11.862 6.10938 12.0859 5.98438 12.2578 5.82812C12.4297 5.66667 12.5156 5.48177 12.5156 5.27344C12.5156 5.0651 12.4297 4.88281 12.2578 4.72656C12.0859 4.57031 11.862 4.45052 11.5859 4.36719C11.3099 4.27865 11.0156 4.23438 10.7031 4.23438C10.401 4.23438 10.1094 4.27865 9.82812 4.36719C9.55208 4.45573 9.32552 4.57812 9.14844 4.73438C8.97656 4.88542 8.89062 5.0651 8.89062 5.27344C8.89062 5.32552 8.90365 5.3724 8.92969 5.41406L3.78125 7.8125L0.875 6.50781C0.59375 6.38281 0.377604 6.21094 0.226562 5.99219C0.0755208 5.76823 0 5.52865 0 5.27344C0 5.02344 0.0755208 4.78646 0.226562 4.5625C0.377604 4.33854 0.59375 4.16146 0.875 4.03125L8.5 0.546875C8.91667 0.359375 9.30208 0.221354 9.65625 0.132812C10.0104 0.0442708 10.3542 0.00260417 10.6875 0.0078125C11.0156 0.00260417 11.3568 0.0442708 11.7109 0.132812C12.0651 0.221354 12.4505 0.359375 12.8672 0.546875L20.4922 4.03125ZM5.05469 9.74219L8 11.0859C8.97396 11.5286 9.86979 11.7474 10.6875 11.7422C11.5052 11.7474 12.3984 11.5286 13.3672 11.0859L18.5156 8.72656V11.0547C18.5156 11.6797 18.3229 12.263 17.9375 12.8047C17.5573 13.3464 17.0182 13.8203 16.3203 14.2266C15.6224 14.638 14.7943 14.9583 13.8359 15.1875C12.8776 15.4167 11.8281 15.5312 10.6875 15.5312C9.54167 15.5312 8.48958 15.4141 7.53125 15.1797C6.57292 14.9505 5.7474 14.6276 5.05469 14.2109V9.74219ZM2.85938 8.73438L3.8125 9.17188V13.1953C3.5 12.8568 3.26302 12.5 3.10156 12.125C2.9401 11.75 2.85938 11.3932 2.85938 11.0547V8.73438ZM3.8125 15.8125V13.1953C3.97396 13.3828 4.15885 13.5599 4.36719 13.7266C4.58073 13.8984 4.8099 14.0599 5.05469 14.2109V15.8125H3.8125ZM3.07812 16.0547C3.07812 15.7057 3.18229 15.4245 3.39062 15.2109C3.60417 15.0026 3.88542 14.8984 4.23438 14.8984H4.625C4.97396 14.8984 5.2526 15.0026 5.46094 15.2109C5.67448 15.4245 5.78125 15.7057 5.78125 16.0547V18.0625C5.78125 18.4115 5.67448 18.6901 5.46094 18.8984C5.2526 19.112 4.97396 19.2188 4.625 19.2188H4.23438C3.88542 19.2188 3.60417 19.112 3.39062 18.8984C3.18229 18.6901 3.07812 18.4115 3.07812 18.0625V16.0547Z" fill="#262626"/>
</svg>
