<svg width="14" height="17" viewBox="0 0 14 17" fill="none" xmlns="http://www.w3.org/2000/svg">
<path d="M3.27344 16.7734C3.02344 16.7734 2.82031 16.7005 2.66406 16.5547C2.51302 16.4089 2.4375 16.2214 2.4375 15.9922C2.4375 15.8568 2.45833 15.737 2.5 15.6328C2.54167 15.5286 2.61979 15.4089 2.73438 15.2734L5.19531 12.3125V12.2812H3.07031C2.85156 12.2812 2.67708 12.2214 2.54688 12.1016C2.42188 11.9818 2.35938 11.8151 2.35938 11.6016C2.35938 11.3984 2.42188 11.237 2.54688 11.1172C2.67708 10.9922 2.85156 10.9297 3.07031 10.9297H6.19531C6.46094 10.9297 6.67188 11 6.82812 11.1406C6.98438 11.276 7.0625 11.4635 7.0625 11.7031C7.0625 11.8438 7.03125 11.9792 6.96875 12.1094C6.91146 12.2344 6.8125 12.3828 6.67188 12.5547L4.33594 15.3906V15.4297H6.42969C6.64844 15.4297 6.82031 15.487 6.94531 15.6016C7.07552 15.7214 7.14062 15.8854 7.14062 16.0938C7.14062 16.3021 7.07552 16.4661 6.94531 16.5859C6.82031 16.7109 6.64844 16.7734 6.42969 16.7734H3.27344ZM9.23438 12.4141C8.96875 12.4141 8.7526 12.3359 8.58594 12.1797C8.42448 12.0234 8.34375 11.8203 8.34375 11.5703C8.34375 11.3255 8.45312 11.0755 8.67188 10.8203L11.8594 6.98438V6.95312H9.03906C8.8099 6.95312 8.6276 6.89062 8.49219 6.76562C8.35677 6.63542 8.28906 6.45833 8.28906 6.23438C8.28906 6.01562 8.35677 5.84375 8.49219 5.71875C8.6276 5.58854 8.8099 5.52344 9.03906 5.52344H12.875C13.1771 5.52344 13.4141 5.60156 13.5859 5.75781C13.7578 5.91406 13.8438 6.125 13.8438 6.39062C13.8438 6.53125 13.8125 6.66667 13.75 6.79688C13.6927 6.92188 13.5885 7.07552 13.4375 7.25781L10.3516 10.9531V10.9844H13.1719C13.4062 10.9844 13.5911 11.0495 13.7266 11.1797C13.8672 11.3047 13.9375 11.4766 13.9375 11.6953C13.9375 11.9141 13.8672 12.0885 13.7266 12.2188C13.5911 12.349 13.4062 12.4141 13.1719 12.4141H9.23438ZM0.976562 8.17969C0.700521 8.17969 0.479167 8.10156 0.3125 7.94531C0.145833 7.78385 0.0625 7.57292 0.0625 7.3125C0.0625 7.17188 0.0807292 7.04688 0.117188 6.9375C0.153646 6.82812 0.226562 6.71094 0.335938 6.58594L4.55469 1.5V1.46875H0.78125C0.541667 1.46875 0.351562 1.40365 0.210938 1.27344C0.0703125 1.14323 0 0.963542 0 0.734375C0 0.505208 0.0703125 0.325521 0.210938 0.195312C0.351562 0.0651042 0.541667 0 0.78125 0H5.625C5.94271 0 6.1901 0.0807292 6.36719 0.242188C6.54948 0.403646 6.64062 0.619792 6.64062 0.890625C6.64062 1.03646 6.61458 1.17188 6.5625 1.29688C6.51042 1.42188 6.41406 1.57031 6.27344 1.74219L2.16406 6.67969V6.71094H5.9375C6.17708 6.71094 6.36719 6.77604 6.50781 6.90625C6.64844 7.03646 6.71875 7.21354 6.71875 7.4375C6.71875 7.67188 6.64844 7.85417 6.50781 7.98438C6.36719 8.11458 6.17708 8.17969 5.9375 8.17969H0.976562Z" fill="#0E0E0E"/>
</svg>
