<svg preserveAspectRatio="none" width="100%" height="100%" overflow="visible" style="display: block;" viewBox="0 0 242.33 363.495" fill="none" xmlns="http://www.w3.org/2000/svg">
<g id="Apple Logo Black 1" clip-path="url(#clip0_4465_1429)">
<path id="Vector" d="M234.62 122.554C232.893 123.917 202.408 141.395 202.408 180.259C202.408 225.211 241.199 241.114 242.36 241.508C242.181 242.477 236.197 263.287 221.908 284.491C209.166 303.15 195.859 321.78 175.615 321.78C155.371 321.78 150.161 309.815 126.792 309.815C104.017 309.815 95.9198 322.173 77.4027 322.173C58.8856 322.173 45.9653 304.907 31.1099 283.703C13.9027 258.804 0 220.122 0 183.409C0 124.523 37.6296 93.2926 74.6639 93.2926C94.342 93.2926 110.745 106.439 123.1 106.439C134.859 106.439 153.198 92.505 175.585 92.505C184.07 92.505 214.554 93.2926 234.62 122.554ZM164.957 67.5753C174.216 56.3978 180.765 40.8887 180.765 25.3796C180.765 23.2289 180.587 21.0479 180.2 19.291C165.136 19.8665 147.214 29.4992 136.407 42.2518C127.923 52.0662 120.004 67.5753 120.004 83.2965C120.004 85.6592 120.391 88.0219 120.57 88.7792C121.522 88.9609 123.07 89.173 124.618 89.173C138.134 89.173 155.133 79.9644 164.957 67.5753Z" fill="var(--fill-0, #EDEDED)"/>
</g>
<defs>
<clipPath id="clip0_4465_1429">
<rect width="242.33" height="363.495" fill="white"/>
</clipPath>
</defs>
</svg>
