<svg preserveAspectRatio="none" width="100%" height="100%" overflow="visible" style="display: block;" viewBox="0 0 302.913 363.495" fill="none" xmlns="http://www.w3.org/2000/svg">
<g id="Frame 28">
<path id="Vector" d="M151.122 37C137.167 50.5645 121.324 64.8814 108.124 78.8227L123.588 99.1714V100.297L81.7207 118.762L53.8169 99.5465L70.7821 80.706V79.1978C53.0552 66.7637 37.9721 54.7116 21 43.4078L29.2929 128.561H273.7L282 43.4078C265.027 54.7115 249.938 66.7637 232.212 79.1978V80.706L249.184 99.5465L220.893 118.762L179.412 100.297V99.1714L194.868 78.8227C181.668 64.8814 165.834 50.5645 151.879 37H151.122ZM31.1809 143.635L33.8266 171.892H123.967V269.853L80.2121 269.478C70.4056 269.478 59.8464 258.928 62.1098 252.146C64.3732 242.35 73.0504 235.946 81.3492 231.047C79.8416 231.047 49.6664 208.813 35.3342 199.016C36.085 205.422 46.2659 285.305 46.2659 286.436L150.742 326H152.25L256.726 286.436C256.726 285.305 266.913 205.422 267.665 199.016C253.331 208.813 223.159 231.047 221.65 231.047C229.948 235.946 238.618 242.35 240.881 252.146C243.144 258.928 232.584 269.478 222.779 269.478L179.031 269.853V171.892H269.171L271.81 143.635H31.1779L31.1809 143.635Z" fill="var(--fill-0, #EDEDED)"/>
</g>
</svg>
