<svg preserveAspectRatio="none" width="100%" height="100%" overflow="visible" style="display: block;" viewBox="0 0 302.913 363.495" fill="none" xmlns="http://www.w3.org/2000/svg">
<g id="Frame 27">
<path id="Subtract" d="M142.846 21.0259C147.476 18.2373 153.031 18.2373 157.661 21.0259L282.666 93.5288C285.444 95.3878 287.296 97.2469 288.222 99.1059C289.148 100.965 290.073 103.754 290.073 106.542V251.548C290.073 257.125 287.296 261.773 282.666 264.562L158.587 337.065C155.809 339.853 153.032 340.783 150.254 340.783C147.476 340.783 144.698 339.854 142.846 338.924L18.7666 265.492C14.1369 262.703 11.3594 258.055 11.3594 252.478V107.472C11.3594 104.684 12.285 101.895 13.2109 100.036C15.0628 97.2471 16.9147 95.3878 18.7666 93.5288L142.846 21.0259ZM158.065 64.143C154.392 61.377 147.045 61.377 143.371 64.143L55.2061 115.777C51.5325 118.543 47.8594 124.076 47.8594 128.686V138.829C47.8596 143.439 51.5327 149.893 55.2061 151.737L181.024 225.499C184.698 228.266 184.698 231.953 181.024 233.797L158.065 247.628C154.392 250.394 147.045 250.394 143.371 247.628L55.2061 195.995C51.5327 193.229 47.8596 195.994 47.8594 200.604V231.032C47.8594 235.642 51.5327 242.096 55.2061 243.94L143.371 295.574C147.045 298.34 154.392 298.34 158.065 295.574L246.229 243.94C249.903 241.174 253.577 235.642 253.577 231.032V220.889C253.577 216.279 249.903 209.825 246.229 207.981L120.411 134.218C116.738 131.452 116.738 127.763 120.411 125.919L143.371 112.089C147.045 109.323 154.392 109.323 158.065 112.089L246.229 163.723C249.903 166.489 253.577 163.723 253.577 159.113V128.686C253.577 124.076 249.903 117.621 246.229 115.777L158.065 64.143Z" fill="var(--fill-0, #EDEDED)"/>
</g>
</svg>
