<svg preserveAspectRatio="xMidYMid meet" width="100%" height="100%" overflow="visible" style="display: block;" viewBox="0 0 511.165 363.495" fill="none" xmlns="http://www.w3.org/2000/svg">
<g id="MasterClass Logo 2020 Pink 1" clip-path="url(#clip0_4465_1075)">
<path id="Vector" d="M254.241 186.251L216.247 52.502H110.846V73.9762H120.847C133.32 73.9762 143.666 81.3831 147.46 95.0698L205.527 298.892H258.408L284.331 208.413L283.957 208.076C267.03 208.091 258.724 201.753 254.241 186.251Z" fill="var(--fill-0, #EDEDED)"/>
<path id="Vector_2" d="M467.427 277.418C454.997 277.418 444.981 268.986 441.188 255.943L383.12 52.502H302.262L372.386 298.892H477.428V277.432L467.427 277.418Z" fill="var(--fill-0, #EDEDED)"/>
<path id="Vector_3" d="M36.7832 277.374V298.907H130.215V298.863V277.403V277.374H36.7832Z" fill="var(--fill-0, #EDEDED)"/>
<path id="Vector_4" d="M64.761 389.927L46.7558 441.673H41.8989L22.7585 389.927L18.0308 429.831C17.9015 430.562 17.8153 431.646 17.8153 432.129C17.8153 436.945 19.8845 437.94 26.8107 438.291V441.658H4.92571V438.291C10.3287 437.999 12.1393 436.93 12.6997 432.612L18.6775 384.481C19.3097 379.27 16.8669 377.733 10.6017 377.338V374.088H32.0413C32.2424 376.196 32.6879 377.836 33.4495 379.973L48.9256 421.955L63.2522 379.841C64.0138 377.748 64.5886 376.182 64.7323 374.074H85.8413V377.323C79.7486 377.748 77.277 379.256 77.9811 384.467L83.7577 432.597C84.3181 437.12 86.3012 437.984 91.5461 438.277V441.644H60.8956V438.277C67.4338 437.911 69.6898 436.915 69.6898 432.114C69.6898 431.543 69.6036 430.562 69.5174 429.816L64.761 389.927ZM133.103 430.972C133.103 434.251 133.865 436.359 136.265 436.359C137.673 436.359 139.009 435.891 140.058 435.408L140.619 437.516C137.874 440.795 134.281 442.654 129.913 442.654C124.668 442.654 121.349 439.433 120.429 434.134C117.397 438.218 112.483 442.449 105.528 442.449C97.9406 442.449 92.9256 437.706 92.9256 429.992C92.9256 421.809 98.7022 418.31 105.815 415.734L120.142 410.435V402.296C120.142 396.704 118.317 392.752 113.474 392.752C109.034 392.752 106.376 393.908 104.953 395.929C107.899 396.617 109.594 399.017 109.594 402.003C109.594 406.161 106.778 408.883 102.41 408.883C98.3429 408.883 95.742 406.175 95.742 401.93C95.742 393.835 103.904 389.751 114.509 389.751C126.551 389.751 133.074 394.201 133.074 405.59L133.103 430.972ZM120.156 431.836V413.934L111.994 417.212C107.999 418.852 105.456 421.004 105.456 426.376C105.456 431.441 107.712 434.895 112.842 434.895C115.587 434.91 117.483 433.856 120.156 431.836ZM142.142 437.925L141.538 424.59H145.044C147.157 432.978 151.87 439.272 159.17 439.272C164.3 439.272 168.093 436.857 168.093 431.529C168.093 426.317 164.673 424.297 157.201 421.589C147.142 418.003 141.941 413.934 141.941 405.048C141.941 395.314 149.125 389.707 159.457 389.707C165.636 389.707 170.838 391.274 174.933 393.865V405.546H171.7C170.091 398.681 166.211 393.016 159.472 393.016C154.672 393.016 151.798 395.899 151.798 400.159C151.798 404.477 154.758 406.614 162.058 409.425C172.289 412.997 178.238 416.949 178.238 426.42C178.238 436.667 170.766 442.654 159.098 442.654C151.884 442.654 146.022 440.721 142.142 437.925ZM198.629 390.586H210.987V394.948H198.629V426.991C198.629 432.787 200.813 435.305 205.296 435.305C207.84 435.305 209.938 434.442 212.28 432.714L213.53 434.354C210.498 439.17 205.742 442.668 198.83 442.668C191.157 442.668 185.466 438.526 185.466 427.693V394.962H179.589V392.898C186.127 389.81 191.616 384.511 195.683 378.129H198.629V390.586ZM255.906 409.806V412.031H225.083C224.71 425.468 231.464 433.593 240.761 433.593C247.213 433.593 251.452 430.709 254.886 425.703L256.294 426.566C253.909 436.11 246.997 442.683 236.177 442.683C222.439 442.683 213.243 432.363 213.243 417.549C213.243 401.14 223.661 389.737 236.565 389.737C249.253 389.722 255.906 398.227 255.906 409.806ZM225.356 408.561H244.123C244.123 399.383 241.781 393.22 235.588 393.22C229.351 393.22 226.032 399.676 225.356 408.561ZM351.35 378.817L351.551 394.245H347.844C345.659 383.135 340.098 377.192 330.887 377.192C317.883 377.192 311.905 390.395 311.905 406.849C311.905 424.78 318.831 438.526 331.721 438.526C340.644 438.526 346.694 432.802 349.927 418.823H353.807L352.313 436.959C346.823 440.531 339.394 442.683 330.514 442.683C309.936 442.683 297.205 429.567 297.205 409.659C297.205 387.146 311.905 373.049 330.514 373.049C338.963 373.034 345.947 375.113 351.35 378.817ZM375.246 434.251C375.246 437.618 376.655 438.204 381.138 438.482V441.658H356.192V438.482C360.546 438.189 362.084 437.618 362.084 434.251V382.842L356.394 379.841V377.821L373.134 373.166H375.232L375.246 434.251ZM410.007 431.792V413.948L401.859 417.227C397.979 418.735 395.393 420.974 395.393 426.391C395.393 431.411 397.692 434.91 402.693 434.91C405.452 434.91 407.363 433.856 410.007 431.792ZM432.05 437.925L431.489 424.59H435.01C437.065 432.978 441.821 439.272 449.092 439.272C454.208 439.272 458.131 436.857 458.131 431.529C458.131 426.317 454.61 424.297 447.095 421.589C437.036 418.003 431.834 413.934 431.834 405.048C431.834 395.314 439.019 389.707 449.466 389.707C455.515 389.707 460.732 391.274 464.798 393.865V405.546H461.579C459.999 398.681 456.09 393.016 449.466 393.016C444.537 393.016 441.678 395.899 441.678 400.159C441.678 404.477 444.623 406.614 451.937 409.425C462.197 412.997 468.247 416.949 468.247 426.42C468.247 436.667 460.645 442.654 448.992 442.654C441.821 442.654 435.93 440.721 432.05 437.925ZM473.118 437.925L472.644 424.59H476.15C478.205 432.978 483.048 439.272 490.276 439.272C495.348 439.272 499.271 436.857 499.271 431.529C499.271 426.317 495.679 424.297 488.365 421.589C478.191 418.003 472.989 413.934 472.989 405.048C472.989 395.314 480.217 389.707 490.635 389.707C496.685 389.707 501.901 391.274 506.011 393.865V405.546H502.792C501.254 398.681 497.259 393.016 490.635 393.016C485.692 393.016 482.962 395.899 482.962 400.159C482.962 404.477 485.792 406.614 493.092 409.425C503.438 412.997 509.33 416.949 509.33 426.42C509.33 436.667 501.815 442.654 490.146 442.654C483.048 442.654 477.07 440.721 473.118 437.925ZM423.054 430.972C423.054 434.251 423.773 436.359 426.173 436.359C427.581 436.359 428.917 435.891 429.966 435.408L430.527 437.516C427.782 440.795 424.19 442.654 419.836 442.654C414.634 442.654 411.271 439.433 410.352 434.134C407.32 438.218 402.405 442.449 395.45 442.449C387.863 442.449 382.848 437.706 382.848 429.992C382.848 421.809 388.625 418.31 395.738 415.734L410.064 410.435V402.296C410.064 396.704 408.254 392.752 403.44 392.752C398.956 392.752 396.284 393.908 394.875 395.929C397.821 396.617 399.517 399.017 399.517 402.003C399.517 406.161 396.686 408.883 392.332 408.883C388.251 408.883 385.665 406.175 385.665 401.93C385.665 393.835 393.812 389.751 404.431 389.751C416.502 389.751 423.04 394.201 423.04 405.59L423.054 430.972ZM281.025 396.104C281.025 400.832 283.769 403.848 287.922 403.848C292.492 403.848 295.351 400.832 295.351 396.617C295.351 392.254 292.779 389.737 289.1 389.737C283.97 389.737 280.651 393.396 276.929 404.038L277.303 389.737H275.119L258.177 394.962V396.778L263.867 400.276V434.281C263.867 437.647 262.344 438.233 257.976 438.511V441.687H284.904V438.511C279.128 438.028 276.944 437.442 276.944 433.563V408.766C279.042 402.765 282.361 398.607 287.85 395.328L281.025 396.104Z" fill="var(--fill-0, #EDEDED)"/>
</g>
<defs>
<clipPath id="clip0_4465_1075">
<rect width="511.165" height="363.495" fill="white"/>
</clipPath>
</defs>
</svg>
