<svg preserveAspectRatio="none" width="100%" height="100%" overflow="visible" style="display: block;" viewBox="0 0 364.437 211" fill="none" xmlns="http://www.w3.org/2000/svg">
<g id="Group">
<path id="Vector" d="M226.278 0C210.979 0 196.561 8.63558 191.337 22.4229C189.258 27.9071 188.395 33.3899 188.827 39.2366H204.697C211.266 39.2366 215.256 42.6342 215.256 44.9295C198.629 51.428 191.977 60.2308 192.95 67.154L207.669 171.847L259.628 52.1885C263.121 44.1665 263.843 37.4275 261.335 27.6283C258.973 18.3968 253.339 9.35259 240.877 3.34564C236.517 1.36537 231.017 0 226.278 0Z" fill="var(--fill-0, #EDEDED)"/>
<path id="Vector_2" d="M138.102 0C133.363 0 127.863 1.08373 123.503 3.06401C111.041 9.07097 105.125 18.3971 102.763 27.6286C100.256 37.4278 101.874 45.876 104.752 52.4705L156.854 171.847L175.535 41.7524C176.466 35.2675 175.716 28.5124 173.3 22.4228C167.863 8.71784 154.369 0 138.102 0Z" fill="var(--fill-0, #EDEDED)"/>
<path id="Vector_3" d="M46.9097 58.4296C42.8521 60.8779 38.7645 64.7707 36.2038 68.8173C29.0778 80.0785 28.5301 93.0312 31.2202 101.345C34.082 110.19 39.7121 116.375 46.7393 121.085L152.209 191.769L100.969 75.1126C98.3339 69.1144 93.714 63.7241 88.3678 59.9375C76.5403 51.5606 59.6071 50.7679 46.9097 58.4296Z" fill="var(--fill-0, #EDEDED)"/>
<path id="Vector_4" d="M3.12067 158.846C1.01993 163.094 -0.115985 168.648 0.00938248 173.435C0.358257 186.757 4.93346 195.862 13.9765 202.989C19.5086 207.349 29.3975 210.991 37.8575 210.991L160.779 211L58.4818 142.492C54.9795 140.147 47.4342 136.047 37.4987 135.974C29.144 135.912 21.682 138.714 15.7425 143.302C8.04985 149.245 5.38571 154.266 3.12067 158.846Z" fill="var(--fill-0, #EDEDED)"/>
<path id="Vector_5" d="M317.425 58.4296C321.482 60.8779 325.57 64.7707 328.131 68.8173C335.257 80.0785 335.804 93.0312 333.114 101.345C330.252 110.19 324.622 116.375 317.595 121.085L212.125 191.769L263.366 75.1126C266.001 69.1144 270.62 63.7241 275.967 59.9375C287.794 51.5606 304.727 50.7679 317.425 58.4296Z" fill="var(--fill-0, #EDEDED)"/>
<path id="Vector_6" d="M361.316 158.846C363.417 163.094 364.553 168.648 364.428 173.435C364.079 186.757 359.504 195.862 350.46 202.989C344.928 207.35 335.039 210.991 326.579 210.991L203.373 211L305.813 142.492C309.317 140.149 316.945 135.974 327.394 135.974C335.749 135.974 343.068 138.714 349.008 143.302C356.7 149.245 359.051 154.266 361.316 158.846Z" fill="var(--fill-0, #EDEDED)"/>
</g>
</svg>
