<svg preserveAspectRatio="xMidYMid meet" width="100%" height="100%" overflow="visible" style="display: block;" viewBox="0 0 363.495 363.495" fill="none" xmlns="http://www.w3.org/2000/svg">
<g id="Logo / Squarespace" clip-path="url(#clip0_4465_2052)">
<path id="Icon" d="M249.26 132.483C275.36 106.427 317.583 106.427 343.683 132.483C369.862 158.461 370.133 200.756 344.289 227.069L245.022 326.505L227.015 308.618L325.676 209.485C341.835 193.222 341.835 166.935 325.676 150.672C309.458 134.585 283.332 134.585 267.115 150.672L152.112 266.025L134.105 247.987L249.26 132.483ZM305.703 188.415L190.549 303.768C164.448 329.823 122.226 329.823 96.1248 303.768L87.1971 294.824L104.901 276.635L113.829 285.73C130.098 301.834 156.273 301.834 172.542 285.73L287.545 170.529L305.703 188.415ZM136.223 50.9318L37.5623 150.368C21.3497 166.777 21.4853 193.244 37.8651 209.485C54.245 225.725 80.6668 225.59 96.8797 209.182L211.883 93.8293L229.134 111.564L113.979 227.068C87.905 253.187 45.6298 253.187 19.5555 227.068C-6.51856 200.948 -6.51874 158.601 19.5555 132.482L118.821 33.0451L136.223 50.9318ZM172.843 55.7824C198.943 29.7271 241.166 29.7271 267.266 55.7824L276.194 64.7248L258.339 82.7629L249.41 73.8195C241.651 65.9699 231.082 61.554 220.055 61.5539C209.027 61.5539 198.457 65.9697 190.698 73.8195L75.6952 189.021L57.5369 171.135L172.843 55.7824Z" fill="var(--fill-0, #EDEDED)"/>
</g>
<defs>
<clipPath id="clip0_4465_2052">
<rect width="363.495" height="363.495" fill="white"/>
</clipPath>
</defs>
</svg>
