<svg preserveAspectRatio="none" width="100%" height="100%" overflow="visible" style="display: block;" viewBox="0 0 363.495 363.495" fill="none" xmlns="http://www.w3.org/2000/svg">
<g id="Logo / Unfold">
<path id="Icon" fill-rule="evenodd" clip-rule="evenodd" d="M115.656 74.3516C56.3427 74.3516 8.25977 122.435 8.25977 181.748C8.25977 241.061 56.3427 289.144 115.656 289.144L123.917 289.145C124.205 289.145 124.491 289.13 124.776 289.1C125.984 288.975 127.115 288.59 128.112 288.001L181.747 257.353L235.477 288.056C236.725 288.769 238.138 289.144 239.575 289.144H247.837C307.15 289.144 355.233 241.061 355.233 181.748C355.233 122.435 307.15 74.3516 247.837 74.3516H239.575C238.032 74.3516 236.587 74.775 235.351 75.512L181.746 106.143L128.016 75.44C126.768 74.7268 125.355 74.3516 123.917 74.3516H115.656ZM24.7823 181.748C24.7823 131.56 65.4679 90.8741 115.656 90.8741H121.723L222.924 148.703L119.819 207.62C117.245 209.091 115.656 211.828 115.656 214.793V272.622C65.4679 272.622 24.7823 231.936 24.7823 181.748ZM198.397 115.658L231.314 134.467V96.8484L198.397 115.658ZM247.837 90.8741V148.703C247.837 151.667 246.248 154.405 243.674 155.876L140.569 214.793L241.769 272.622H247.837C298.025 272.622 338.71 231.936 338.71 181.748C338.71 131.56 298.025 90.8741 247.837 90.8741ZM165.096 247.838L132.179 266.648V229.028L165.096 247.838Z" fill="var(--fill-0, #EDEDED)"/>
</g>
</svg>
